<svg width="500" height="105" fill="none" version="1.1" viewBox="0 0 500 105" xmlns="http://www.w3.org/2000/svg"><path d="m221.35 25.649c6.1996-1.7783 11.779-3.3786 21.413-3.3786 17.76 0 25.288 9.1747 27.759 12.35v5e-4c2.4692 3.1757 3.9978 6.8221 4.4682 11.174 0.47033 4.2345 0 8.7041-1.2934 13.409l-9.7619 36.816h-27.524s9.88-36.816 10.468-39.169c2.5876-9.6453-3.0582-12.233-9.0566-12.233-0.72777 0-1.4195 0.03377-2.077 0.09757-9.8614 0.95968-12.02 8.7644-13.143 12.821-0.024 0.08681-0.0478 0.17187-0.0708 0.25518-1.1761 4.5872-9.7624 38.228-9.7624 38.228h-27.64l18.701-71.751s6.7042 4.4697 16.584 1.6467c0.31372-0.08956 0.62519-0.17888 0.93491-0.26769zm-96.559 0.03252c5.4106-1.5292 18.819-3.5288 27.64-3.4112 13.285 0.23514 22.456 3.173 27.28 8.8137 2e-3 0.0028 5e-3 0.0053 7e-3 8e-3 4.8224 5.5284 5.8809 13.292 3.2933 22.819l-10.939 42.227s-0.4263-0.353-1.2589-0.81608c-2.4975-1.3895-8.6504-3.7714-17.913-0.59542-0.60293 0.20564-1.2479 0.41154-1.9321 0.61418-4.7889 1.4185-11.491 2.6791-19.004 2.6791-0.63219 0-1.2649-9e-3 -1.8971-0.02777-9.4817-0.27995-18.841-2.6921-24.685-8.2058-0.60293-0.55889-1.1651-1.1451-1.6862-1.7547-3.6471-4.268-5.268-9.6843-4.5477-14.83 0.58816-3.8815 2.2348-7.5278 5.0576-11.057 2.2348-2.823 5.7636-5.5284 9.292-7.4102 4.1166-2.1172 7.9981-3.5287 11.997-4.3523 4.4694-0.94091 9.2918-1.4115 14.114-1.4115 4.1167 0 7.8806 0.23542 10.939 0.70575 2.3524 0.353 4.5872 0.82358 6.7042 1.4115 0.0168-0.04878 0.0338-0.09757 0.0505-0.1461 0.0108-0.03127 0.0215-0.06254 0.0325-0.09382 1.1511-3.3308 2.2986-6.6512-1.3767-9.5227-1.0587-0.83809-2.4094-1.4668-3.9628-1.9251-10.874-3.2083-31.676 1.9251-31.676 1.9251s4.3521-15.291 4.4696-15.644zm10.076 55.166c-3.0937-0.01701-11.834-2.0274-10.311-8.5866 0.58791-2.47 2.7052-4.7048 5.5279-5.9987 3.6233-1.6804 7.4572-2.1885 10.791-2.1945 3.862 0.0068 7.036 0.68198 8.4029 0.97294 0.077 0.01651 0.14835 0.03152 0.21365 0.04528 0.87262 0.15861 1.9061 0.47809 2.9916 0.81332 0.52387 0.16186 1.0595 0.32748 1.5954 0.48059-9e-3 0-0.033 0.08731-0.0776 0.24818-0.52562 1.9088-3.9042 14.177-19.133 14.22zm280.68-58.577c10.115 0 20.347 2.3525 26.581 8.2338v0.0015c4.8209 4.4692 7.1726 10.701 5.9992 16.464v2e-3c-0.0375 0.24242-0.0775 0.48409-0.12258 0.72501-0.67798 3.6118-2.2891 7.0235-4.936 10.332-0.2802 0.353-0.57791 0.704-0.89563 1.0517-2.2216 2.4347-5.3088 4.7118-8.3959 6.3587-0.25769 0.13209-0.51537 0.26168-0.77055 0.38852-3.8327 1.9028-7.4778 3.1915-11.228 3.9635-0.5579 0.11758-1.1233 0.22791-1.6912 0.33073-3.9828 0.72051-8.2033 1.0808-12.421 1.0808-0.25768 0-0.51536-1e-3 -0.76804-0.0028-3.8177-0.02777-7.3052-0.26194-10.172-0.703-0.24017-0.04803-0.48784-0.10082-0.74302-0.15786-1.7838-0.39803-3.8902-0.9927-5.634-1.4853-0.02-0.0063-0.0425-0.01226-0.065-0.01851-0.4253-0.12058-0.83059-0.23466-1.2034-0.33799-0.1326 0.4263-0.23267 0.86936-0.30021 1.3232-0.47534 3.1777 0.66797 6.8956 4.0654 9.2628v2.51e-4c11.055 7.7632 36.931 0.94091 41.049-1.1763-0.13009 0.39678-0.26519 0.82283-0.40279 1.2711-0.96568 3.138-2.109 7.3755-2.9446 10.47-0.10758 0.39303-0.20765 0.76804-0.30272 1.1198-0.41279 1.5241-0.713 2.6158-0.82057 2.9003-1.6161 0.61769-3.47 1.2499-5.6165 1.8288-6.4396 1.7367-15.526 2.9939-28.845 1.9351-0.83059-0.06605-1.6337-0.1461-2.4117-0.23917-11.658-1.3972-17.495-5.7668-23.229-11.17-11.881-11.292-15.644-45.285 24.347-60.576 4.7033-1.7642 13.289-3.1757 21.878-3.1757zm1.8813 31.523c2.822-1.2939 4.9385-3.5287 5.5264-5.9987 0.0175-0.06755 0.0325-0.1346 0.045-0.20114 1.3059-6.4235-7.3677-8.2686-10.51-8.3854h-2e-3c-1.0282 0-2.0114 0.05554-2.9496 0.15986-14.057 1.5636-17.985 14.073-17.985 14.073 1.6462 0.47033 5.0561 1.2937 6.3495 1.5291 0.065 0.01376 0.1376 0.02877 0.21515 0.04528 2.5568 0.54388 11.433 2.4325 19.311-1.2216zm51.751-48.108c0.82308-3.1759 3.8827-5.646 7.1751-5.646h23.642l-26.346 95.864h-29.288l3.1747-11.527v-0.11758zm-118.32 2.3525c3.7627-4.4697 9.4091-7.0575 15.288-7.0575h28.23l-91.98 103.98-0.025-0.10182-0.0926 0.10182-27.992-103.98h30.229l11.968 47.414zm-324.87-7.9985h46.107c40.301 0 36.748 30.862 35.661 34.971-7e-3 0.02827-0.0148 0.05529-0.022 0.08106-0.0113 0.04128-0.0225 0.08381-0.034 0.12759-0.057 0.21865-0.11758 0.46833-0.18363 0.74653-0.0265 0.11108-0.0538 0.22691-0.0823 0.34724-0.45733 1.9366-1.1836 5.0123-2.7634 8.536-4.7391 10.571-17.159 25.177-53.041 25.177h-14.585l-4.2342 16.232c-2.5e-4 7.51e-4 -5e-4 0.0013-5e-4 2e-3 -2.0957 8.0484-8.016 9.4814-16.113 9.629-0.53898 0.01001-1.088 0.01401-1.6467 0.01401h-15.055zm31.404 47.991c15.879 0 21.289-10.821 22.348-14.35 1.0585-3.5287 0.58816-13.762-13.997-13.762h-14.938l-7.6451 28.112z" clip-rule="evenodd" fill="#003986" fill-rule="evenodd" stroke-width="2.5018"/></svg>
