<svg height="1662" viewBox="0 -24.35 755.41 477.87" width="2500" xmlns="http://www.w3.org/2000/svg"><path d="m715.4 384.26h6.28v44.51h-6.28v24.73h39.58v-24.73h-6.27v-44.51h6.27v-24.29h-39.58zm-47.2 0h4.49l-7.18 23.85-7.22-23.85h4.06v-24.29h-39.13v24.29h9.46l22.05 69.24h22.46l21.15-69.24h8.97v-24.29h-39.11zm-67 44.51h-9.89v-44.51h7.2v-24.29h-40.48v24.29h6.3v44.51h-6.3v24.73h67.46v-39.56h-24.29zm-124.57-44.51h6.33v44.51h-6.33v24.73h69.27v-31.05h-24.31v6.32h-11.68v-10.79h21.6v-23.83h-21.6v-9.89h11.68v5.85h24.31v-30.14h-69.27zm-49.91 8.98v-8.98h11.7v5.85h25.21v-15.28l-14.42-14.86h-33.7l-15.77 15.72v27.02l12.16 13.02h25.6v13.04h-10.78v-8.1h-26.08v17.1l14.87 15.73h32.8l16.22-16.18v-31.94l-11.71-12.14zm-74.62 0v-8.98h11.67v5.85h25.19v-15.28l-14.39-14.86h-33.24l-15.76 15.72v27.02l11.67 13.02h26.09v13.04h-11.23v-8.1h-26.09v17.1l15.32 15.73h32.37l16.17-16.18v-31.94l-11.7-12.14zm-61.6-33.27h-25.65l-22.03 68.8h-7.65v24.75h36.88v-23.4h-5.84l1.82-5.38h17.51l1.35 5.38h-5.84v23.4h38.23v-24.75h-8.54l-20.25-68.8zm-16.64 44.95 3.15-9.86 2.7 9.86zm-86.33-20.66h5.86v44.51h-5.86v24.73h39.12v-24.73h-6.31v-44.51h6.31v-24.29h-39.12zm-48.11-.92h6.73v18.47l-22.03-41.84h-32.84v24.29h6.3v44.51h-6.3v24.73h36.45v-23.84h-7.19v-22.92l24.71 46.76h23.38v-69.24h6.3v-24.29h-35.51zm-97.13 0h3.15v45.43h-10.79v-45.43h3.58v-23.37h-37.78v24.29h7.24v53.06l15.71 16.18h33.27l15.74-16.18v-53.06h7.18v-24.29h-37.3zm335.84-174.32c72.43-134.01 229.79-194.26 376.83-139.85l.45-52.61c-138.07-40.91-285.99-7.66-386.27 117.83-106.11-89.95-258.99-93.98-369.14-20.24v57.55c107.45-97.12 291.82-82.73 378.13 37.31z"/><path d="m383.98 274.2c-68.79-154.65-279.38-176.07-383.98-60.01v67.68c26.68-38.89 62.72-66.33 101.86-81.62 97.82-38.2 215.07 1.11 254.38 125.24h63.73c24.29-172.66 201.01-241.02 334.99-173.12l.45-48.56c-145.24-59.8-313.42.91-371.42 170.41z"/></svg>